<?xml version="1.0" encoding="UTF-8"?>
<svg id="Layer_2" data-name="Layer 2" xmlns="http://www.w3.org/2000/svg" viewBox="0 0 501 501">
  <defs>
    <style>
      .cls-1 {
        stroke-linecap: round;
      }

      .cls-1, .cls-2, .cls-3 {
        fill: none;
        stroke: #000;
        stroke-miterlimit: 10;
      }

      .cls-1, .cls-3 {
        stroke-width: 24px;
      }

      .cls-2 {
        stroke-width: 30px;
      }

      .cls-4 {
        fill: #e6e6e6;
      }
    </style>
  </defs>
  <g id="Layer_1-2" data-name="Layer 1">
    <circle id="bg" class="cls-4" cx="250.5" cy="250.5" r="250.5"/>
    <circle id="border" class="cls-2" cx="250.5" cy="250.5" r="215.5"/>
    <g>
      <path class="cls-3" d="m153,314s-14,0-27,13-15,51,22,59c15.7,3.4,28.8-7,36.7-15.9,5.4-6.1,8.3-13.9,8.3-22v-210.8c0-.2.1-.3.3-.3l168.3-23.9c.2,0,.4.1.4.3v17.6l1,182.2c0,8-2.9,15.8-8.2,21.8-8,9-21.1,19.4-36.8,16-37-8-35-46-22-59s27-13,27-13"/>
      <path class="cls-3" d="m186,203s123-18,137-18"/>
      <path class="cls-1" d="m111,148s-42,59-26,136"/>
      <path class="cls-1" d="m306,389.8s-34.6,11-96,9"/>
      <path class="cls-1" d="m403,173s15.8,44.9,5,106"/>
    </g>
  </g>
</svg>