<?xml version="1.0" encoding="UTF-8"?>
<svg id="Layer_2" data-name="Layer 2" xmlns="http://www.w3.org/2000/svg" viewBox="0 0 500 500">
  <defs>
    <style>
      .cls-1 {
        stroke-linecap: round;
        stroke-width: 24px;
      }

      .cls-1, .cls-2 {
        fill: none;
        stroke: #000;
        stroke-miterlimit: 10;
      }

      .cls-2 {
        stroke-width: 30px;
      }

      .cls-3 {
        fill: #e6e6e6;
      }
    </style>
  </defs>
  <g id="Layer_1-2" data-name="Layer 1">
    <circle class="cls-3" cx="250" cy="250" r="250"/>
    <g>
      <g>
        <path d="m92,318.5c-5.2,0-9.5-4.3-9.5-9.5v-118c0-5.2,4.3-9.5,9.5-9.5h47.5v137h-47.5Z"/>
        <path d="m139,182v136h-47c-5,0-9-4-9-9v-118c0-5,4-9,9-9h47m1-1h-48c-5.5,0-10,4.5-10,10v118c0,5.5,4.5,10,10,10h48v-138h0Z"/>
      </g>
      <g>
        <path d="m256,397.3c-1.9,0-3.8-.6-5.4-1.7l-110.1-76.9v-137.5l110.1-76.9c1.6-1.1,3.5-1.7,5.4-1.7,4.6,0,9.5,3.6,9.5,9.5v275.6c0,5.9-4.9,9.5-9.5,9.5Z"/>
        <path d="m256,103.2h0c4.3,0,9,3.4,9,9v275.6c0,5.6-4.7,9-9,9s-3.6-.6-5.1-1.6l-109.8-76.7v-137l109.8-76.7c1.5-1.1,3.3-1.6,5.1-1.6m0-1c-1.9,0-3.9.6-5.7,1.8l-110.3,77v138l110.3,77c1.8,1.3,3.8,1.8,5.7,1.8,5.2,0,10-4.1,10-10V112.2c0-5.9-4.8-10-10-10h0Z"/>
      </g>
      <path class="cls-1" d="m378.8,145.5c57.2,59.7,54.7,154.3-1.9,208.5"/>
      <path class="cls-1" d="m337.1,180.6c38,39.6,36.3,102.4-1.3,138.4"/>
      <path class="cls-1" d="m299.1,200.1c24.6,25.6,23.5,66.2-.8,89.5"/>
    </g>
    <circle class="cls-2" cx="250" cy="250" r="215"/>
  </g>
</svg>